# xmcd CD database file
#
# Track frame offsets:
#	150
#	13176
#	28693
#	49457
#	61820
#	77709
#	90056
#	103443
#	113821
#	126487
#	136266
#	151861
#	162753
#	171499
#	188189
#	202871
#	220265
#	232309
#	242195
#	253653
#	266950
#	280719
#
# Disc length: 3919 seconds
#
# Revision: 0
# Processed by: cddbd v1.5.2PL0 Copyright (c) Steve Scherf et al.
# Submitted via: CDex 1.70beta2
#
DISCID=410f4d16
DTITLE=Various Artist - Jazz Emotion
DYEAR=2007
DGENRE=Jazz
TTITLE0=Neil Hefti - Girl Talk
TTITLE1=Miles Davis - Once Upon A Summertime
TTITLE2=Toots Thielemans - Bluesette
TTITLE3=Henry Mancini /Baby Elephant Walk
TTITLE4=Sonny Rollins - The Night Has A Thousand Eyes
TTITLE5=Miles Davis - Corcovado
TTITLE6=Dave Brubeck - Take Five
TTITLE7=Hugo Montenegro - The Fox (theme from)
TTITLE8=Eroll Garner - Misty
TTITLE9=Eddie Davis w Paul Gonzalves - Love is here to stay
TTITLE10=Johnny Hodges and Wild Bill Davis - I'm Beginning to see the light
TTITLE11=Hugo Montengro - A MArtini Build For Two
TTITLE12=Duke Elington - Dancers In Love
TTITLE13=The Glenn Mille Orchestra - Moonlight Serenade
TTITLE14=Neal Hefti - Lil' Darlin
TTITLE15=Duke Ellington - Satin Doll
TTITLE16=Henry Mancini - Lujon
TTITLE17=Hugo Montenegro - Solo Busanova
TTITLE18=Clare Fisher - A Clear Day You Can See Forever
TTITLE19=André Prévin - I Know You Oh So Well
TTITLE20=Paul Desmond - Song from MASH
TTITLE21=Neal Hefti - The Right One
EXTD=YEAR: 2007
EXTT0=
EXTT1=
EXTT2=
EXTT3=
EXTT4=
EXTT5=
EXTT6=
EXTT7=
EXTT8=
EXTT9=
EXTT10=
EXTT11=
EXTT12=
EXTT13=
EXTT14=
EXTT15=
EXTT16=
EXTT17=
EXTT18=
EXTT19=
EXTT20=
EXTT21=
PLAYORDER=
